<svg width="323" height="87" viewBox="0 0 323 87" fill="none" xmlns="http://www.w3.org/2000/svg">
<rect y="12" width="7" height="21" fill="black"/>
<rect x="17" y="14" width="7" height="19" fill="black"/>
<path d="M9 40H16V62L9 66V40Z" fill="black"/>
<path d="M25 40H32V66L25 62V40Z" fill="black"/>
<rect x="33" y="12" width="7" height="7" fill="black"/>
<rect x="7" y="26" width="10" height="7" fill="black"/>
<rect x="24" y="26" width="16" height="7" fill="black"/>
<path d="M62.69 19.1H94.716V25.733H70.462V40.071H91.5V46.704H70.462V66H62.69V19.1ZM98.0639 59.3V39.334L104.697 32.634H123.189L129.889 39.334V59.3L123.189 66H104.697L98.0639 59.3ZM119.638 59.635L122.318 56.955V41.679L119.638 38.999H108.315L105.635 41.679V56.955L108.315 59.635H119.638ZM137.926 32.634H144.961V38.329L150.522 32.634H159.768V39.133H152.197L145.497 45.967V66H137.926V32.634ZM167.833 59.367V39.066H161.803V32.634H167.967V21.78H175.404V32.634H185.655V39.066H175.404V56.955L178.017 59.568H185.655V66H174.466L167.833 59.367ZM192.037 32.634H199.072V38.329L204.633 32.634H213.879V39.133H206.308L199.608 45.967V66H192.037V32.634ZM216.557 59.367V39.334L223.19 32.634H241.347L248.114 39.334V51.796H224.128V57.156L226.674 59.702H238.131L240.543 57.223V55.213H248.047V59.501L241.548 66H223.123L216.557 59.367ZM240.543 46.235V41.612L237.93 38.932H226.741L224.128 41.612V46.235H240.543ZM254.156 59.769V55.682H261.593V57.826L263.469 59.769H274.859L276.735 57.826V54.208L274.792 52.265H260.387L254.424 46.235V38.731L260.521 32.634H277.338L283.502 38.865V42.952H276.065V40.808L274.189 38.865H263.737L261.861 40.808V44.158L263.804 46.101H278.142L284.172 52.198V59.903L278.075 66H260.32L254.156 59.769ZM289.553 59.769V55.682H296.99V57.826L298.866 59.769H310.256L312.132 57.826V54.208L310.189 52.265H295.784L289.821 46.235V38.731L295.918 32.634H312.735L318.899 38.865V42.952H311.462V40.808L309.586 38.865H299.134L297.258 40.808V44.158L299.201 46.101H313.539L319.569 52.198V59.903L313.472 66H295.717L289.553 59.769Z" fill="black"/>
</svg>
